<svg width="32" height="32" viewBox="0 0 32 32" fill="none" xmlns="http://www.w3.org/2000/svg">
  <defs>
    <linearGradient id="grad" x1="0%" y1="0%" x2="100%" y2="100%">
      <!-- Using your theme's primary color: oklch(0.208 0.042 265.755) converted to RGB -->
      <stop offset="0%" style="stop-color:#2e1065;stop-opacity:1" />
      <stop offset="100%" style="stop-color:#2e1065;stop-opacity:0.7" />
    </linearGradient>
  </defs>
  <!-- Rounded rectangle background with gradient matching your theme -->
  <rect width="32" height="32" rx="8" fill="url(#grad)"/>
  
  <!-- GraduationCap icon centered and scaled to fit -->
  <g transform="translate(8, 8) scale(0.667)">
    <path d="M21.42 10.922a1 1 0 0 0-.019-1.838L12.83 5.18a2 2 0 0 0-1.66 0L2.6 9.08a1 1 0 0 0 0 1.832l8.57 3.908a2 2 0 0 0 1.66 0z" fill="none" stroke="white" stroke-width="2" stroke-linecap="round" stroke-linejoin="round"/>
    <path d="M22 10v6" fill="none" stroke="white" stroke-width="2" stroke-linecap="round" stroke-linejoin="round"/>
    <path d="M6 12.5V16a6 3 0 0 0 12 0v-3.5" fill="none" stroke="white" stroke-width="2" stroke-linecap="round" stroke-linejoin="round"/>
  </g>
</svg>
